<svg version="1.1" id="Layer_1" xmlns="http://www.w3.org/2000/svg" xmlns:xlink="http://www.w3.org/1999/xlink" x="0px" y="0px"
	 width="100%" viewBox="0 0 881 520" enable-background="new 0 0 881 520" xml:space="preserve">
<path fill="#020202" opacity="1.000000" stroke="none" 
	d="
M562.000000,521.000000 
	C374.666656,521.000000 187.833328,521.000000 1.000000,521.000000 
	C1.000000,347.666656 1.000000,174.333328 1.000000,1.000000 
	C294.666656,1.000000 588.333313,1.000000 882.000000,1.000000 
	C882.000000,174.333328 882.000000,347.666656 882.000000,521.000000 
	C775.500000,521.000000 669.000000,521.000000 562.000000,521.000000 
M393.851746,224.974442 
	C393.851746,224.974442 393.938385,224.843063 394.709534,224.991272 
	C395.470673,224.834045 396.231842,224.676804 397.665192,224.638214 
	C398.741394,224.329834 399.817566,224.021469 401.687134,223.863998 
	C402.450592,223.639648 403.214020,223.415298 404.760345,223.404800 
	C417.708069,221.298279 430.655823,219.191757 443.591827,216.975327 
	C443.591827,216.975327 443.394196,217.022644 444.287109,216.959488 
	C451.515808,215.833099 458.744537,214.706711 466.647217,213.395248 
	C467.855408,212.974945 469.034607,212.334198 470.276611,212.170898 
	C477.175140,211.263794 484.088898,210.472672 491.847656,209.621277 
	C501.365295,208.041245 510.882935,206.461212 520.492004,205.096436 
	C520.492004,205.096436 520.962585,205.085449 520.962585,205.085449 
	C520.962585,205.085449 520.794128,204.869461 521.726257,204.896637 
	C523.239868,204.571945 524.753479,204.247269 526.245789,204.100128 
	C526.245789,204.100128 526.487366,204.098206 526.487366,204.098206 
	C526.487366,204.098206 526.463989,203.892563 527.272949,203.960556 
	C528.848755,203.621140 530.424622,203.281723 532.523926,203.000839 
	C532.679565,202.919586 532.835205,202.838318 533.755310,202.803848 
	C534.472900,202.572479 535.190430,202.341110 536.491394,202.354340 
	C537.291199,202.136856 538.090942,201.919357 539.692139,201.814682 
	C540.463013,201.609940 541.233887,201.405197 542.707703,201.403870 
	C544.326294,201.045990 545.944885,200.688095 548.039368,200.439133 
	C548.377075,200.438309 548.683472,200.339966 549.633850,200.291214 
	C562.464355,198.271637 575.294800,196.252060 588.125305,194.232468 
	C588.066284,193.774323 588.007263,193.316162 587.948242,192.858002 
	C580.404419,193.227768 572.860474,193.595154 565.316772,193.967865 
	C555.220520,194.466675 545.124451,194.969574 534.254578,195.300583 
	C531.828735,195.503830 529.402893,195.707092 526.146729,195.694519 
	C524.728516,195.815948 523.310364,195.937393 521.373230,195.866074 
	C520.280518,195.982254 519.187744,196.098434 517.169556,196.057114 
	C514.365356,196.245987 511.561096,196.434860 508.502106,196.499908 
	C508.502106,196.499908 508.290985,196.688721 507.609802,196.519394 
	C507.390747,196.601624 507.171692,196.683868 506.461731,196.552231 
	C505.954010,196.678055 505.446320,196.803894 504.062561,196.690628 
	C501.030792,196.852737 497.999054,197.014862 494.442627,196.965668 
	C493.291840,197.084930 492.141022,197.204178 490.069122,197.153427 
	C479.109283,197.600922 468.149475,198.048416 456.322906,198.329544 
	C448.532013,198.588882 440.741150,198.848236 432.502289,198.878311 
	C431.673798,198.985992 430.845306,199.093674 429.260132,199.076767 
	C428.506927,199.169891 427.753723,199.263016 426.155853,199.159698 
	C423.115540,199.392273 420.075256,199.624863 416.208588,199.650177 
	C414.803741,199.768127 413.398865,199.886063 411.278870,199.771698 
	C410.531830,199.816940 409.784760,199.862198 408.294312,199.665512 
	C404.633270,199.824524 400.972198,199.983536 396.339050,200.063049 
	C390.896057,200.329346 385.453033,200.595642 379.242798,200.591644 
	C377.166931,200.728394 375.091034,200.865143 372.336243,200.760437 
	C371.876190,200.860367 371.416168,200.960297 370.276611,200.814682 
	C367.886505,200.966919 365.496399,201.119156 362.291931,201.057968 
	C361.188934,201.182190 360.085938,201.306396 358.318298,201.196213 
	C357.872711,201.311493 357.427124,201.426758 356.144897,201.254593 
	C354.102722,201.388474 352.060516,201.522339 349.314423,201.353928 
	C347.543274,201.489426 345.772156,201.624924 343.097473,201.500748 
	C338.062988,201.683273 333.028503,201.865799 327.081238,201.820877 
	C304.308044,202.297470 281.533264,202.716141 258.764282,203.345856 
	C256.634155,203.404755 254.246628,204.385971 252.485626,205.646988 
	C247.147659,209.469421 242.058914,213.639862 236.257034,217.977356 
	C234.133850,219.591263 232.010651,221.205185 229.228226,222.994629 
	C227.147430,224.674606 225.066635,226.354584 222.326431,228.166672 
	C220.584488,229.525238 218.842529,230.883789 216.443695,232.353912 
	C214.247513,234.099258 212.051346,235.844604 209.147034,237.801132 
	C208.515121,239.182571 207.883209,240.564011 207.251266,241.945435 
	C208.828827,242.604279 210.397400,243.807724 211.985397,243.833954 
	C222.612183,244.009430 233.243103,243.934418 243.872681,243.939987 
	C246.602402,243.941422 249.332138,243.940201 252.569016,243.940201 
	C250.655579,254.208008 248.906052,263.596161 246.953018,273.637054 
	C246.988617,274.087189 247.024216,274.537292 246.799835,275.737396 
	C245.897125,280.812805 244.994415,285.888245 243.777817,291.681122 
	C242.241913,300.963989 240.706024,310.246887 239.063583,320.173706 
	C244.661636,320.173706 249.461227,320.002899 254.241364,320.234253 
	C257.385437,320.386414 259.041656,319.406067 259.995300,316.261139 
	C262.773560,307.099060 265.856720,298.029388 269.146301,288.271759 
	C270.080292,285.178070 271.014313,282.084412 272.315491,278.664886 
	C272.525909,278.373688 272.566254,278.060608 272.832947,277.389679 
	C272.918579,276.583618 273.004242,275.777588 273.318756,274.243408 
	C273.861572,272.092438 274.404358,269.941437 275.392853,267.300110 
	C277.246002,262.196228 279.099152,257.092346 281.166382,251.389206 
	C282.664337,247.831787 281.827515,242.857986 287.547333,241.970795 
	C310.498962,238.410843 333.435455,234.752167 356.367371,231.066406 
	C368.622040,229.096741 380.855927,226.997574 393.190857,225.188980 
	C393.500793,225.258118 393.679016,225.155243 393.851746,224.974442 
M635.612244,285.442047 
	C635.084595,283.961304 634.557007,282.480530 634.271606,280.298035 
	C634.163330,279.826294 634.055115,279.354584 634.164673,278.851196 
	C634.164673,278.851196 634.114014,278.538391 634.114014,278.538391 
	C634.114014,278.538391 633.857422,278.533539 633.763245,277.839966 
	C633.245850,277.084930 632.728455,276.329895 632.132568,274.909821 
	C628.662354,272.208252 625.192139,269.506653 621.236389,266.236938 
	C617.897827,265.245789 614.585999,263.513947 611.216125,263.392517 
	C597.120972,262.884613 582.968506,262.155762 568.918762,262.951477 
	C561.761414,263.356812 554.777283,266.819946 547.098389,269.195435 
	C544.910767,271.736420 542.723206,274.277374 540.018982,277.216980 
	C539.338013,283.793671 538.656982,290.370392 537.770447,297.605255 
	C538.232117,299.388092 538.693787,301.170929 539.096741,303.662445 
	C541.355652,306.672668 543.614624,309.682861 546.061951,313.291962 
	C548.812256,314.761566 551.412537,316.948578 554.342041,317.560852 
	C561.926270,319.145966 569.623413,320.682007 577.333862,321.065765 
	C591.722229,321.781830 606.283508,322.354004 620.094971,317.189148 
	C623.867554,315.778381 626.907776,312.409332 630.813232,309.605621 
	C630.929138,309.218140 631.044983,308.830627 631.751282,308.064087 
	C632.906921,304.366882 634.062561,300.669647 635.582397,296.258698 
	C635.570435,295.466431 635.558472,294.674164 635.863464,293.276794 
	C635.772217,291.573425 635.680969,289.870087 635.724243,287.429077 
	C635.562378,286.969391 635.400513,286.509705 635.612244,285.442047 
M306.732849,314.842407 
	C308.232208,312.608948 309.731567,310.375488 311.970398,307.813019 
	C313.746429,307.607422 315.519867,307.252502 317.298889,307.221832 
	C325.539429,307.079712 333.781464,307.027618 342.591736,307.227112 
	C344.051941,307.132721 345.512115,307.038361 347.866882,307.132812 
	C352.373596,307.714569 357.809601,305.345856 360.736328,311.760498 
	C361.147980,312.165955 361.559631,312.571411 361.967712,313.020905 
	C361.967712,313.020905 362.010162,313.033112 362.121979,313.718811 
	C364.062500,315.852203 365.782959,319.506836 367.986053,319.825592 
	C373.918579,320.683899 380.057007,320.118958 387.511719,320.118958 
	C384.484131,316.291321 382.369720,313.618164 380.083496,310.344147 
	C379.737488,310.148041 379.391449,309.951935 379.137543,309.843414 
	C379.137543,309.843414 379.236481,309.763580 379.168640,309.299957 
	C379.168640,309.299957 378.815002,308.992523 378.896149,308.619873 
	C378.578705,308.335754 378.261230,308.051605 377.904602,307.411133 
	C377.809479,307.164185 377.631531,307.018097 377.266754,306.298828 
	C376.943481,305.996399 376.620239,305.693939 376.181274,304.899963 
	C375.816711,304.592773 375.452148,304.285583 374.938141,303.298279 
	C373.039337,300.750305 371.140533,298.202332 369.139130,295.085266 
	C368.613068,294.547089 368.087036,294.008911 367.205597,293.487823 
	C367.205597,293.487823 367.567261,293.451874 367.317169,292.789795 
	C366.267639,291.467468 365.218079,290.145111 364.328125,288.623566 
	C364.328125,288.623566 364.180328,288.414398 364.180328,288.414398 
	C364.180328,288.414398 363.926971,288.454010 363.929932,288.128967 
	C363.929932,288.128967 363.620056,288.030823 363.503296,287.386902 
	C360.772095,283.773621 358.040894,280.160339 355.142761,275.902924 
	C353.532410,273.899323 351.922058,271.895691 350.136475,269.202301 
	C347.692474,263.503998 343.227997,261.963867 337.425385,262.799835 
	C335.322540,263.102814 333.089905,263.145630 331.002655,262.794647 
	C325.007782,261.786499 321.828125,264.856140 319.263947,270.209991 
	C317.756714,272.437836 316.249481,274.665680 314.143402,277.139038 
	C311.658295,280.689850 309.173187,284.240662 306.805023,287.806580 
	C306.805023,287.806580 306.771698,287.693481 306.210999,287.999939 
	C305.507721,289.008453 304.804443,290.016968 303.666718,291.531677 
	C301.817444,294.021729 299.968170,296.511749 297.720093,299.552765 
	C295.352295,303.007996 292.984497,306.463196 290.042816,310.188446 
	C287.878204,313.174622 285.713593,316.160797 282.829376,320.139679 
	C289.028809,320.139679 293.689697,319.841736 298.293335,320.227600 
	C302.485291,320.578979 304.930359,319.013428 306.732849,314.842407 
M500.610718,274.724670 
	C500.693359,275.486298 500.776031,276.247955 500.543121,277.872864 
	C500.650482,280.923035 500.757843,283.973175 500.587372,287.846191 
	C500.681427,289.569855 500.775482,291.293488 500.572845,293.821808 
	C500.628815,295.530090 500.684814,297.238342 500.372711,299.682709 
	C500.372711,306.416687 500.372711,313.150635 500.372711,319.856415 
	C506.919495,319.856415 512.520813,319.856415 518.337097,319.856415 
	C518.544312,318.290741 518.853333,316.998993 518.865662,315.704437 
	C519.023376,299.058533 519.154053,282.412292 519.219116,265.765869 
	C519.222290,264.947754 518.559814,264.127045 517.428040,262.995453 
	C516.872559,262.994659 516.317078,262.993896 515.756775,262.715637 
	C515.756775,262.715637 515.350647,262.682556 515.350647,262.682556 
	C515.350647,262.682556 515.205017,262.990845 514.247253,262.926941 
	C509.871277,262.926941 505.495270,262.926941 500.870972,262.926941 
	C500.870972,266.254852 500.870972,269.126740 500.584412,272.645203 
	C500.682465,273.095551 500.780518,273.545868 500.610718,274.724670 
M478.638824,314.002625 
	C478.777313,313.665833 478.915833,313.329041 479.441406,312.497131 
	C479.924927,311.642883 480.408447,310.788635 481.169006,309.330231 
	C484.873627,300.729919 481.494141,293.318970 472.826141,291.027069 
	C472.826141,291.027069 472.665405,291.112610 471.873718,290.449127 
	C472.098358,289.596466 472.322998,288.743805 473.266022,288.003082 
	C474.467499,286.999695 475.668976,285.996307 477.297577,284.456879 
	C477.835815,283.293671 478.374054,282.130432 479.044678,280.337341 
	C479.529358,270.154755 478.276489,268.077301 469.323029,264.807526 
	C465.232880,264.188141 461.147675,263.075226 457.051697,263.033936 
	C438.291565,262.844849 419.528351,262.955780 400.770386,262.688690 
	C400.770386,262.688690 400.376373,262.676300 400.376373,262.676300 
	C400.376373,262.676300 400.300171,262.983551 399.425262,263.159454 
	C399.264496,265.443481 399.103729,267.727539 398.634644,270.895142 
	C398.753693,275.270081 398.872711,279.645020 398.694122,284.892761 
	C398.802490,288.257996 398.910858,291.623260 398.726624,295.746948 
	C398.780640,296.823761 398.834686,297.900543 398.528290,299.708405 
	C398.528290,306.316986 398.528290,312.925568 398.528290,320.167542 
	C404.775848,320.167542 410.400055,320.239502 416.021851,320.153900 
	C432.164734,319.908203 448.326050,319.957947 464.436768,319.088287 
	C469.073761,318.837982 473.563812,315.865631 478.087891,314.084412 
	C478.087891,314.084412 478.069092,314.145691 478.638824,314.002625 
z"/>
<path fill="#F4DE91" opacity="1.000000" stroke="none" 
	d="
M370.956116,201.060242 
	C371.416168,200.960297 371.876190,200.860367 372.887817,201.131989 
	C374.287689,201.679123 375.135986,201.854706 375.989075,202.467377 
	C376.244232,208.754074 379.222198,215.765198 369.778778,217.511719 
	C369.651123,217.535339 369.622498,218.094070 369.375122,219.115280 
	C372.548065,219.668457 375.681061,220.214676 378.814026,220.760895 
	C378.821930,221.227570 378.829803,221.694244 378.837708,222.160919 
	C372.088928,223.120926 365.340149,224.080948 358.591370,225.040970 
	C358.723450,225.884766 358.855560,226.728561 358.987671,227.572357 
	C367.663330,226.708801 376.338989,225.845261 385.411621,224.924759 
	C388.525665,224.597916 391.242767,224.328033 393.954895,224.254395 
	C393.949951,224.450638 393.938385,224.843063 393.938385,224.843063 
	C393.938385,224.843063 393.851746,224.974442 393.629150,224.922333 
	C393.406525,224.870239 393.099182,224.956848 393.099182,224.956848 
	C380.855927,226.997574 368.622040,229.096741 356.367371,231.066406 
	C333.435455,234.752167 310.498962,238.410843 287.547333,241.970795 
	C281.827515,242.857986 282.664337,247.831787 280.818909,251.433411 
	C279.650909,249.654800 278.830322,247.831985 278.004883,246.004639 
	C278.000000,246.000107 277.990753,245.991409 278.034180,245.645020 
	C277.444244,243.734772 277.057251,241.010529 276.133514,240.814438 
	C272.724152,240.090698 269.136475,240.018158 265.617310,240.034042 
	C252.233200,240.094406 239.233521,238.642609 227.647049,231.111526 
	C226.086121,230.096939 224.539230,229.060745 222.985840,228.034576 
	C225.066635,226.354584 227.147430,224.674606 229.790405,223.158478 
	C232.233490,223.211334 234.114380,223.100342 235.984558,223.375046 
	C234.717957,229.628357 234.712784,229.556641 240.941071,229.107208 
	C242.354645,229.005219 243.918152,229.348572 245.240692,229.899628 
	C251.031158,232.312286 256.649536,235.048019 263.306335,233.148315 
	C265.262573,232.590057 267.685822,232.915512 269.712036,233.485931 
	C278.300079,235.903687 286.885498,234.808838 295.326202,233.244125 
	C301.139709,232.166428 306.651093,229.553604 312.415802,228.094193 
	C319.774353,226.231262 327.224854,224.690735 334.692535,223.320923 
	C337.478729,222.809845 340.523376,222.695358 343.271423,223.264008 
	C346.215515,223.873245 346.782410,223.159836 346.761108,220.399445 
	C346.750732,219.057877 347.539612,217.088440 348.594666,216.463562 
	C354.430023,213.007477 357.188934,207.589447 358.982941,201.430618 
	C360.085938,201.306396 361.188934,201.182190 362.998413,201.386978 
	C366.121948,201.497406 368.539032,201.278824 370.956116,201.060242 
z"/>
<path fill="#F4EFC4" opacity="1.000000" stroke="none" 
	d="
M236.873093,217.674728 
	C242.058914,213.639862 247.147659,209.469421 252.485626,205.646988 
	C254.246628,204.385971 256.634155,203.404755 258.764282,203.345856 
	C281.533264,202.716141 304.308044,202.297470 327.268372,202.174286 
	C323.948792,204.540039 319.797180,205.913071 317.052917,208.681274 
	C307.789337,218.025772 296.374603,221.409744 283.780853,221.964432 
	C276.306641,222.293640 268.765472,221.784012 261.352417,222.572830 
	C256.678955,223.070145 252.614761,222.569260 249.257614,219.597763 
	C245.776123,216.516220 242.642517,215.529449 238.671661,218.997070 
	C237.902222,218.985245 237.462616,218.974594 236.994690,218.640564 
	C236.935303,218.103058 236.904205,217.888901 236.873093,217.674728 
z"/>
<path fill="#F8E5A1" opacity="1.000000" stroke="none" 
	d="
M237.022995,218.963943 
	C237.462616,218.974594 237.902222,218.985245 238.718643,219.346619 
	C243.205093,225.507645 249.764740,227.450684 255.938263,227.763901 
	C275.980286,228.780746 295.958740,228.170105 315.430786,222.024200 
	C327.254089,218.292450 337.351135,212.571640 344.001007,201.760422 
	C345.772156,201.624924 347.543274,201.489426 349.830048,201.795685 
	C352.557617,202.005646 354.769592,201.773834 356.981537,201.542023 
	C357.427124,201.426758 357.872711,201.311493 358.650635,201.313416 
	C357.188934,207.589447 354.430023,213.007477 348.594666,216.463562 
	C347.539612,217.088440 346.750732,219.057877 346.761108,220.399445 
	C346.782410,223.159836 346.215515,223.873245 343.271423,223.264008 
	C340.523376,222.695358 337.478729,222.809845 334.692535,223.320923 
	C327.224854,224.690735 319.774353,226.231262 312.415802,228.094193 
	C306.651093,229.553604 301.139709,232.166428 295.326202,233.244125 
	C286.885498,234.808838 278.300079,235.903687 269.712036,233.485931 
	C267.685822,232.915512 265.262573,232.590057 263.306335,233.148315 
	C256.649536,235.048019 251.031158,232.312286 245.240692,229.899628 
	C243.918152,229.348572 242.354645,229.005219 240.941071,229.107208 
	C234.712784,229.556641 234.717957,229.628357 236.026886,223.030701 
	C236.394272,221.188416 236.708633,220.076172 237.022995,218.963943 
z"/>
<path fill="#C99C4E" opacity="1.000000" stroke="none" 
	d="
M630.284058,309.938965 
	C626.907776,312.409332 623.867554,315.778381 620.094971,317.189148 
	C606.283508,322.354004 591.722229,321.781830 577.333862,321.065765 
	C569.623413,320.682007 561.926270,319.145966 554.342041,317.560852 
	C551.412537,316.948578 548.812256,314.761566 546.006287,312.543579 
	C547.533386,308.862793 554.157959,307.105804 558.195312,308.888184 
	C561.050537,310.148743 562.522644,309.619080 563.225647,306.535522 
	C564.003845,306.948273 564.528687,307.343323 565.245728,308.013824 
	C565.820496,308.514374 566.203186,308.739410 566.481323,308.855652 
	C566.376770,308.746857 566.579163,308.523010 566.811768,308.788971 
	C568.020874,309.064606 568.997375,309.074310 570.407227,309.017395 
	C584.087402,310.135498 597.324158,311.146637 610.704102,306.743866 
	C614.064819,307.216156 617.054932,308.248962 619.841309,307.851929 
	C623.737549,307.296722 627.273865,306.796326 630.284058,309.938965 
z"/>
<path fill="#EDD07B" opacity="1.000000" stroke="none" 
	d="
M393.959839,224.058136 
	C391.242767,224.328033 388.525665,224.597916 385.417664,224.556915 
	C385.579865,219.321381 389.951538,218.268814 393.312103,217.555984 
	C401.584106,215.801376 402.747925,210.416199 402.017426,203.478699 
	C401.913696,202.493698 401.995178,201.489182 402.432281,200.449890 
	C404.928314,200.239868 406.983032,200.073654 409.037720,199.907440 
	C409.784760,199.862198 410.531830,199.816940 411.706970,200.215027 
	C413.768372,200.391388 415.401672,200.124420 417.034943,199.857452 
	C420.075256,199.624863 423.115540,199.392273 426.636658,199.584274 
	C429.743713,202.669006 432.136383,205.633728 435.074585,207.887131 
	C437.194580,209.513031 440.016083,210.254929 442.578308,211.253555 
	C443.286133,211.529419 444.586731,210.968582 444.935913,211.375168 
	C448.634766,215.682495 453.050812,213.510788 457.383759,213.111099 
	C460.208466,212.850510 463.107483,213.395966 465.973236,213.580322 
	C458.744537,214.706711 451.515808,215.833099 443.877380,217.001495 
	C443.467682,217.043503 443.603546,217.085220 443.603546,217.085236 
	C430.655823,219.191757 417.708069,221.298279 404.216675,223.053009 
	C402.465057,222.531372 401.257111,222.361511 400.049133,222.191635 
	C400.330658,222.698792 400.612213,223.205948 400.893768,223.713104 
	C399.817566,224.021469 398.741394,224.329834 397.228821,224.305145 
	C395.848267,224.000763 394.904053,224.029449 393.959839,224.058136 
z"/>
<path fill="#C5974B" opacity="1.000000" stroke="none" 
	d="
M478.121216,314.141296 
	C473.563812,315.865631 469.073761,318.837982 464.436768,319.088287 
	C448.326050,319.957947 432.164734,319.908203 416.021851,320.153900 
	C410.400055,320.239502 404.775848,320.167542 398.528290,320.167542 
	C398.528290,312.925568 398.528290,306.316986 398.972504,299.556091 
	C399.601288,300.280579 399.785828,301.157379 399.965027,302.458435 
	C400.048248,304.753967 400.136871,306.625183 400.238586,308.773743 
	C406.187012,308.111267 411.384918,307.532379 416.737427,307.259308 
	C416.938690,308.016815 416.985352,308.468475 417.147766,309.307129 
	C418.232605,310.132538 419.198364,310.943298 420.171326,310.952087 
	C430.381531,311.044250 440.593475,311.057129 450.803040,310.933807 
	C451.856476,310.921051 452.897522,309.884735 454.312195,309.162964 
	C457.420471,308.277252 460.160889,307.551971 463.104156,307.041626 
	C463.836273,307.486938 464.365509,307.717316 465.329834,307.967163 
	C470.092743,307.328156 473.378448,308.879028 475.812744,312.517853 
	C476.300751,313.247314 477.337494,313.609680 478.121216,314.141296 
z"/>
<path fill="#F3EAB2" opacity="1.000000" stroke="none" 
	d="
M343.549255,201.630585 
	C337.351135,212.571640 327.254089,218.292450 315.430786,222.024200 
	C295.958740,228.170105 275.980286,228.780746 255.938263,227.763901 
	C249.764740,227.450684 243.205093,225.507645 239.048462,219.347778 
	C242.642517,215.529449 245.776123,216.516220 249.257614,219.597763 
	C252.614761,222.569260 256.678955,223.070145 261.352417,222.572830 
	C268.765472,221.784012 276.306641,222.293640 283.780853,221.964432 
	C296.374603,221.409744 307.789337,218.025772 317.052917,208.681274 
	C319.797180,205.913071 323.948792,204.540039 327.724762,202.287994 
	C333.028503,201.865799 338.062988,201.683273 343.549255,201.630585 
z"/>
<path fill="#EFD785" opacity="1.000000" stroke="none" 
	d="
M476.870453,284.992920 
	C475.668976,285.996307 474.467499,286.999695 472.572662,287.947327 
	C471.044434,288.517426 470.209564,289.143311 469.374664,289.769226 
	C470.471588,290.216980 471.568481,290.664795 472.665405,291.112610 
	C472.665405,291.112610 472.826141,291.027069 472.588257,291.331543 
	C468.254486,293.194916 464.158600,294.753845 459.586975,296.309021 
	C445.069580,296.175964 431.027863,296.046600 416.738098,295.660461 
	C410.761963,291.244995 404.882660,293.450317 399.019226,294.988495 
	C398.910858,291.623260 398.802490,288.257996 399.088257,284.415466 
	C399.482361,283.938141 399.978638,283.905426 400.289246,283.703583 
	C403.065277,283.174225 405.540955,282.525757 407.993378,282.604004 
	C410.785553,282.693085 413.557037,283.430725 416.558319,284.192200 
	C417.450470,284.887543 418.122925,285.618378 418.792999,285.616180 
	C430.855652,285.576843 442.924225,285.621674 454.975098,285.190277 
	C457.310760,285.106659 459.577209,283.090607 462.229431,282.112183 
	C464.405151,282.067688 466.351318,282.222076 468.024872,281.619415 
	C472.487213,280.012512 474.991974,280.839447 476.870453,284.992920 
z"/>
<path fill="#E9C971" opacity="1.000000" stroke="none" 
	d="
M466.310242,213.487793 
	C463.107483,213.395966 460.208466,212.850510 457.383759,213.111099 
	C453.050812,213.510788 448.634766,215.682495 444.935913,211.375168 
	C444.586731,210.968582 443.286133,211.529419 442.578308,211.253555 
	C440.016083,210.254929 437.194580,209.513031 435.074585,207.887131 
	C432.136383,205.633728 429.743713,202.669006 427.058990,199.682495 
	C427.753723,199.263016 428.506927,199.169891 429.626709,199.345978 
	C429.993286,199.615189 430.046844,200.026108 430.130981,200.168365 
	C430.215149,200.310623 430.654327,200.388031 430.654327,200.388031 
	C430.654327,200.388031 430.991547,200.045746 431.270508,199.998428 
	C432.016418,199.669937 432.483337,199.388763 432.950256,199.107574 
	C440.741150,198.848236 448.532013,198.588882 457.094727,198.615082 
	C468.271515,198.913300 478.676453,198.925980 489.112610,199.306625 
	C490.872467,200.870773 492.601105,202.066940 493.522644,202.704620 
	C493.004822,204.616165 492.539276,206.334579 491.936584,208.254044 
	C491.532104,208.850693 491.264801,209.246277 490.997498,209.641846 
	C484.088898,210.472672 477.175140,211.263794 470.276611,212.170898 
	C469.034607,212.334198 467.855408,212.974945 466.310242,213.487793 
z"/>
<path fill="#EFD785" opacity="1.000000" stroke="none" 
	d="
M278.009766,246.009155 
	C278.830322,247.831985 279.650909,249.654800 280.711914,251.733032 
	C279.099152,257.092346 277.246002,262.196228 275.177704,267.373444 
	C274.962555,267.446777 274.894440,267.109131 274.926575,266.757904 
	C274.972046,265.939728 274.985413,265.472748 275.187622,264.814148 
	C275.952881,262.391357 276.529327,260.160187 277.105743,257.929016 
	C276.708435,257.839081 276.311127,257.749146 275.913818,257.659210 
	C274.726990,258.770569 273.540192,259.881927 272.160431,261.173920 
	C269.611877,253.788177 268.543793,253.155533 261.618286,254.083908 
	C259.077728,254.424469 256.507507,254.543839 253.321289,254.818329 
	C252.321198,258.534393 251.178452,262.780518 249.975220,267.400085 
	C249.590424,269.503937 249.266098,271.234344 248.644562,272.971710 
	C247.950424,272.980560 247.553467,272.982422 247.156525,272.984314 
	C248.906052,263.596161 250.655579,254.208008 252.569016,243.940201 
	C249.332138,243.940201 246.602402,243.941422 243.872681,243.939987 
	C233.243103,243.934418 222.612183,244.009430 211.985397,243.833954 
	C210.397400,243.807724 208.828827,242.604279 207.251282,241.945435 
	C207.883209,240.564011 208.515121,239.182571 209.538239,238.139633 
	C209.782227,241.368896 211.379425,242.071716 213.973572,242.033295 
	C221.081833,241.927979 228.192917,242.023193 235.302002,241.951752 
	C236.467651,241.940033 237.628860,241.485687 238.792114,241.235886 
	C238.832458,240.658432 238.872803,240.080978 238.913147,239.503525 
	C236.192825,239.005203 233.448547,238.609131 230.759216,237.978653 
	C228.265579,237.394043 225.746155,236.760696 223.394455,235.775558 
	C221.189972,234.852112 219.190353,233.439621 217.100586,232.242340 
	C218.842529,230.883789 220.584488,229.525238 222.656128,228.100616 
	C224.539230,229.060745 226.086121,230.096939 227.647049,231.111526 
	C239.233521,238.642609 252.233200,240.094406 265.617310,240.034042 
	C269.136475,240.018158 272.724152,240.090698 276.133514,240.814438 
	C277.057251,241.010529 277.444244,243.734772 277.673828,245.704239 
	C276.577240,247.469849 275.884460,248.829865 275.191681,250.189880 
	C275.902405,250.412079 276.613129,250.634262 277.323853,250.856461 
	C277.552490,249.240692 277.781128,247.624924 278.009766,246.009155 
z"/>
<path fill="#DDB45E" opacity="1.000000" stroke="none" 
	d="
M378.815002,308.992523 
	C378.815002,308.992523 379.168640,309.299957 378.799622,309.544617 
	C376.827148,309.624603 375.052582,308.936615 373.652527,309.394287 
	C369.607666,310.716553 366.096680,311.211700 363.730713,306.654449 
	C363.541473,306.289978 362.355713,306.442902 361.861359,306.383057 
	C360.381439,308.919342 366.500122,310.622437 362.010162,313.033112 
	C362.010162,313.033112 361.967712,313.020905 361.954681,312.687988 
	C361.516754,311.958160 361.091827,311.561249 360.666931,311.164368 
	C357.809601,305.345856 352.373596,307.714569 347.177490,306.793823 
	C344.999725,306.617645 343.511353,306.780457 342.022980,306.943298 
	C333.781464,307.027618 325.539429,307.079712 317.298889,307.221832 
	C315.519867,307.252502 313.746429,307.607422 311.251709,307.808228 
	C308.019287,308.220154 305.505615,308.636871 302.651855,309.039307 
	C301.858032,309.020294 301.404266,309.015625 300.920471,308.677795 
	C299.424561,305.327423 297.889862,303.656464 295.717590,308.137939 
	C294.261810,308.791138 293.131500,309.403412 291.655945,309.979523 
	C291.079315,309.935059 290.847992,309.926758 290.616669,309.918427 
	C292.984497,306.463196 295.352295,303.007996 298.234131,299.267578 
	C299.167786,298.985168 299.587402,298.987915 300.355530,298.991333 
	C301.462860,298.324097 302.221680,297.656189 302.989990,296.993042 
	C302.999542,296.997833 302.987152,296.979187 303.385010,296.992065 
	C305.147797,297.424744 306.638916,298.422333 307.854065,298.156799 
	C311.602631,297.337646 315.245819,296.036316 319.157013,294.908173 
	C319.384064,294.894073 319.833527,294.964783 320.070892,295.347778 
	C330.143555,295.731110 339.978821,295.731445 349.888062,296.119263 
	C350.431152,300.428009 353.220886,301.582062 356.576172,301.964478 
	C362.743073,302.667389 368.916748,303.310394 375.087616,303.978394 
	C375.452148,304.285583 375.816711,304.592773 376.281921,305.486664 
	C376.711975,306.373230 377.041382,306.673096 377.370789,306.972931 
	C377.631531,307.018097 377.809479,307.164185 377.987732,307.845062 
	C378.318878,308.516846 378.566956,308.754669 378.815002,308.992523 
z"/>
<path fill="#EFD785" opacity="1.000000" stroke="none" 
	d="
M401.990936,200.493698 
	C401.995178,201.489182 401.913696,202.493698 402.017426,203.478699 
	C402.747925,210.416199 401.584106,215.801376 393.312103,217.555984 
	C389.951538,218.268814 385.579865,219.321381 385.020691,224.613861 
	C376.338989,225.845261 367.663330,226.708801 358.987671,227.572357 
	C358.855560,226.728561 358.723450,225.884766 358.591370,225.040970 
	C365.340149,224.080948 372.088928,223.120926 378.837708,222.160919 
	C378.829803,221.694244 378.821930,221.227570 378.814026,220.760895 
	C375.681061,220.214676 372.548065,219.668457 369.375122,219.115280 
	C369.622498,218.094070 369.651123,217.535339 369.778778,217.511719 
	C379.222198,215.765198 376.244232,208.754074 376.315552,202.456711 
	C377.761475,201.626617 378.885773,201.244278 380.010040,200.861938 
	C385.453033,200.595642 390.896057,200.329346 397.202881,200.200317 
	C399.374756,200.389618 400.682861,200.441650 401.990936,200.493698 
z"/>
<path fill="#F3EAB2" opacity="1.000000" stroke="none" 
	d="
M540.535645,276.818359 
	C542.723206,274.277374 544.910767,271.736420 547.820435,269.010498 
	C553.239624,267.929504 557.939880,266.283051 562.633179,266.302429 
	C570.957458,266.336823 579.275269,267.849915 587.599976,267.891022 
	C598.971863,267.947205 610.347778,267.204987 621.721924,266.805054 
	C625.192139,269.506653 628.662354,272.208252 631.981201,275.516785 
	C630.413696,275.661774 628.766357,275.517548 627.620667,274.683960 
	C622.022400,270.610992 615.685303,272.990753 614.357727,279.495422 
	C610.424683,277.521088 606.914734,274.579041 603.138672,274.184540 
	C594.104797,273.240692 584.925049,273.031067 575.844482,273.433716 
	C569.950256,273.695068 563.685486,274.275696 558.845520,278.826294 
	C559.209595,274.356110 557.470581,272.882477 553.120605,272.853790 
	C549.736023,272.831451 546.756714,272.198273 544.541321,275.690033 
	C543.987976,276.562195 541.911865,276.468262 540.535645,276.818359 
z"/>
<path fill="#F4EFC4" opacity="1.000000" stroke="none" 
	d="
M400.766266,262.959015 
	C419.528351,262.955780 438.291565,262.844849 457.051697,263.033936 
	C461.147675,263.075226 465.232880,264.188141 469.576599,265.364990 
	C469.136444,266.497375 468.463287,267.541718 467.745819,267.573090 
	C461.910034,267.828491 456.056091,267.731384 450.228271,268.082703 
	C447.042084,268.274780 443.431396,268.481262 442.769867,273.206665 
	C434.576630,273.236145 426.786774,273.141266 418.984863,272.641724 
	C417.480988,271.163147 416.004150,269.201996 414.494507,269.176392 
	C409.316864,269.088684 404.127716,269.679474 398.942963,270.011566 
	C399.103729,267.727539 399.264496,265.443481 399.983093,263.163177 
	C400.540924,263.166901 400.766266,262.959015 400.766266,262.959015 
z"/>
<path fill="#E9C971" opacity="1.000000" stroke="none" 
	d="
M248.941757,272.964722 
	C249.266098,271.234344 249.590424,269.503937 250.356750,267.450226 
	C257.527405,267.423065 264.256042,267.719238 270.989349,268.403015 
	C271.692627,270.850891 272.391266,272.911224 273.089905,274.971527 
	C273.004242,275.777588 272.918579,276.583618 272.494263,277.335175 
	C271.834869,277.334900 271.514160,277.389160 271.193451,277.443390 
	C271.445068,277.959167 271.696716,278.474945 271.948334,278.990723 
	C271.014313,282.084412 270.080292,285.178070 268.772339,288.555206 
	C268.398346,288.838654 267.967926,288.843018 267.702850,288.617920 
	C264.774078,287.565094 262.142822,286.607574 259.440887,285.932892 
	C249.676575,283.494690 249.667603,283.530609 244.358826,290.863342 
	C244.257721,290.824310 244.091690,290.963654 244.091705,290.963654 
	C244.994415,285.888245 245.897125,280.812805 247.237015,275.306580 
	C248.096710,274.238770 248.519241,273.601746 248.941757,272.964722 
z"/>
<path fill="#C5974B" opacity="1.000000" stroke="none" 
	d="
M518.207275,263.307526 
	C518.559814,264.127045 519.222290,264.947754 519.219116,265.765869 
	C519.154053,282.412292 519.023376,299.058533 518.865662,315.704437 
	C518.853333,316.998993 518.544312,318.290741 518.337097,319.856415 
	C512.520813,319.856415 506.919495,319.856415 500.372711,319.856415 
	C500.372711,313.150635 500.372711,306.416687 500.809082,299.441284 
	C501.470337,299.500610 501.695190,299.801331 501.920959,300.513794 
	C502.182434,306.059265 504.870483,307.750854 511.840179,308.093170 
	C516.636292,308.328735 518.789429,306.775177 517.817505,301.422119 
	C517.819946,299.293793 517.789917,297.588165 517.803711,295.468933 
	C517.832642,293.662170 517.817810,292.268951 517.852051,290.428040 
	C517.896729,286.655334 517.892334,283.330292 517.935242,279.630615 
	C517.940063,278.505493 517.897583,277.754974 517.923218,276.675598 
	C517.967773,275.901215 517.944214,275.455658 517.983887,274.681122 
	C518.010620,273.909210 517.974182,273.466339 517.996094,272.576904 
	C518.105347,269.189453 518.156311,266.248474 518.207275,263.307526 
z"/>
<path fill="#C5974B" opacity="1.000000" stroke="none" 
	d="
M267.967926,288.843018 
	C267.967926,288.843018 268.398346,288.838654 268.609344,288.881073 
	C265.856720,298.029388 262.773560,307.099060 259.995300,316.261139 
	C259.041656,319.406067 257.385437,320.386414 254.241364,320.234253 
	C249.461227,320.002899 244.661636,320.173706 239.063583,320.173706 
	C240.706024,310.246887 242.241913,300.963989 243.934753,291.322388 
	C244.091690,290.963654 244.257721,290.824310 244.306305,291.229645 
	C244.560043,294.104919 244.765198,296.574829 244.816071,299.392059 
	C245.010284,301.957794 245.091888,306.005219 245.750092,306.101257 
	C250.420227,306.782776 255.322342,307.270935 259.892365,306.425262 
	C261.337646,306.157837 261.995941,301.637146 263.313843,298.880676 
	C265.064850,295.413300 266.516388,292.128143 267.967926,288.843018 
z"/>
<path fill="#F4EFC4" opacity="1.000000" stroke="none" 
	d="
M621.479126,266.520996 
	C610.347778,267.204987 598.971863,267.947205 587.599976,267.891022 
	C579.275269,267.849915 570.957458,266.336823 562.633179,266.302429 
	C557.939880,266.283051 553.239624,267.929504 548.128662,268.863220 
	C554.777283,266.819946 561.761414,263.356812 568.918762,262.951477 
	C582.968506,262.155762 597.120972,262.884613 611.216125,263.392517 
	C614.585999,263.513947 617.897827,265.245789 621.479126,266.520996 
z"/>
<path fill="#DDB45E" opacity="1.000000" stroke="none" 
	d="
M492.073761,208.052994 
	C492.539276,206.334579 493.004822,204.616165 493.522644,202.704620 
	C492.601105,202.066940 490.872467,200.870773 489.433228,199.302612 
	C490.152618,198.930511 490.582550,198.930405 491.410126,198.968719 
	C492.873627,199.007156 493.939514,199.007172 495.453735,199.011398 
	C498.914276,198.320328 501.926453,197.625031 504.938599,196.929733 
	C505.446320,196.803894 505.954010,196.678055 506.921997,196.950104 
	C512.855103,197.869278 518.321777,198.556107 523.806519,198.763382 
	C524.825989,198.801910 525.918335,196.910873 526.977051,195.910355 
	C529.402893,195.707092 531.828735,195.503830 534.611816,195.523895 
	C534.968994,195.747223 535.060303,196.014847 535.302063,196.263046 
	C536.690308,196.656937 537.836731,196.802612 539.337036,196.968338 
	C540.466614,197.677963 541.242371,198.367538 541.677490,199.040649 
	C540.882568,199.026871 540.428223,199.029587 539.646240,199.024811 
	C538.562134,199.341141 537.805603,199.664963 537.027649,200.229034 
	C537.006226,200.469269 536.958313,200.949219 536.777222,201.044281 
	C536.366699,201.462814 536.137390,201.786270 535.908020,202.109741 
	C535.190430,202.341110 534.472900,202.572479 533.254883,202.608002 
	C532.540222,202.220047 532.290955,202.102615 531.558838,202.050491 
	C519.460083,203.699371 507.809082,205.357635 495.856445,207.035217 
	C495.061554,207.343582 494.568237,207.632629 493.741516,207.952072 
	C492.963348,208.005981 492.518555,208.029495 492.073761,208.052994 
z"/>
<path fill="#F3EAB2" opacity="1.000000" stroke="none" 
	d="
M314.742249,276.893494 
	C316.249481,274.665680 317.756714,272.437836 319.943115,270.082184 
	C323.063019,269.145233 325.544922,267.548340 327.936981,267.673157 
	C335.413452,268.063293 342.855988,269.103729 350.311676,269.892090 
	C351.922058,271.895691 353.532410,273.899323 355.018707,276.494446 
	C353.141876,276.757355 351.389130,276.428741 349.445923,276.064392 
	C348.325317,281.456726 345.154205,278.077179 342.563812,277.081421 
	C341.407349,278.129700 340.369049,279.070862 339.057312,279.780640 
	C337.563477,277.904663 336.343109,276.260040 334.884369,274.294159 
	C333.152466,276.368164 331.741699,278.057617 330.151978,279.407135 
	C325.824585,276.663696 322.367371,270.172699 316.652069,276.840210 
	C316.373657,277.165039 315.394867,276.889496 314.742249,276.893494 
z"/>
<path fill="#F3EAB2" opacity="1.000000" stroke="none" 
	d="
M443.173218,273.082336 
	C443.431396,268.481262 447.042084,268.274780 450.228271,268.082703 
	C456.056091,267.731384 461.910034,267.828491 467.745819,267.573090 
	C468.463287,267.541718 469.136444,266.497375 469.887115,265.584930 
	C478.276489,268.077301 479.529358,270.154755 478.735352,280.371643 
	C477.097626,273.381866 472.617584,271.770813 466.495972,276.005676 
	C465.214966,276.891876 463.629761,277.338348 461.976929,277.690857 
	C459.545776,276.214966 457.436310,274.446472 455.073334,273.989624 
	C451.193176,273.239563 447.148499,273.340332 443.173218,273.082336 
z"/>
<path fill="#C5974B" opacity="1.000000" stroke="none" 
	d="
M535.060303,196.014847 
	C535.060303,196.014847 534.968994,195.747223 534.998657,195.608978 
	C545.124451,194.969574 555.220520,194.466675 565.316772,193.967865 
	C572.860474,193.595154 580.404419,193.227768 587.948242,192.858002 
	C588.007263,193.316162 588.066284,193.774323 588.125305,194.232468 
	C575.294800,196.252060 562.464355,198.271637 549.091431,199.946625 
	C547.464783,199.422836 546.380676,199.243637 545.296509,199.064438 
	C545.263367,199.304062 545.230225,199.543686 545.197144,199.783325 
	C545.985901,199.965622 546.774719,200.147919 547.563477,200.330200 
	C545.944885,200.688095 544.326294,201.045990 542.352417,201.033829 
	C542.004150,200.128235 542.011108,199.592682 542.018066,199.057129 
	C541.242371,198.367538 540.466614,197.677963 539.087769,196.728180 
	C537.343201,196.316940 536.201721,196.165894 535.060303,196.014847 
z"/>
<path fill="#C99C4E" opacity="1.000000" stroke="none" 
	d="
M362.066071,313.375977 
	C366.500122,310.622437 360.381439,308.919342 361.861359,306.383057 
	C362.355713,306.442902 363.541473,306.289978 363.730713,306.654449 
	C366.096680,311.211700 369.607666,310.716553 373.652527,309.394287 
	C375.052582,308.936615 376.827148,309.624603 378.833557,309.776428 
	C379.236481,309.763580 379.137543,309.843414 379.234924,310.053406 
	C379.639984,310.490570 379.947632,310.717773 380.255310,310.945007 
	C382.369720,313.618164 384.484131,316.291321 387.511719,320.118958 
	C380.057007,320.118958 373.918579,320.683899 367.986053,319.825592 
	C365.782959,319.506836 364.062500,315.852203 362.066071,313.375977 
z"/>
<path fill="#F4DE91" opacity="1.000000" stroke="none" 
	d="
M540.277344,277.017670 
	C541.911865,276.468262 543.987976,276.562195 544.541321,275.690033 
	C546.756714,272.198273 549.736023,272.831451 553.120605,272.853790 
	C557.470581,272.882477 559.209595,274.356110 558.774963,279.189056 
	C557.819946,283.503571 556.699280,287.234467 555.244507,290.808075 
	C554.603882,289.765259 554.088013,288.894531 554.024170,287.991852 
	C553.539551,281.137390 553.532166,281.113617 546.918152,283.406708 
	C546.457092,283.566528 545.914673,283.920074 545.527588,283.801147 
	C538.111755,281.521820 539.334106,286.938538 539.039551,291.444336 
	C538.997803,293.566956 538.971436,295.265106 538.783447,296.956879 
	C538.406738,296.923920 538.191467,296.922791 537.976013,296.947083 
	C538.656982,290.370392 539.338013,283.793671 540.277344,277.017670 
z"/>
<path fill="#E9C971" opacity="1.000000" stroke="none" 
	d="
M375.012878,303.638336 
	C368.916748,303.310394 362.743073,302.667389 356.576172,301.964478 
	C353.220886,301.582062 350.431152,300.428009 349.707947,295.932251 
	C349.334534,294.900848 349.215118,294.443970 349.319641,293.986877 
	C349.543610,293.986725 349.991302,293.973694 350.360596,293.929382 
	C355.347382,291.713776 359.916046,289.137115 364.751740,293.580292 
	C365.239288,294.028290 366.607666,293.517639 367.567261,293.451874 
	C367.567261,293.451874 367.205597,293.487823 367.245972,293.837738 
	C367.420288,294.895966 367.554169,295.604248 367.688080,296.312561 
	C368.205963,296.093170 368.723846,295.873749 369.241730,295.654358 
	C371.140533,298.202332 373.039337,300.750305 375.012878,303.638336 
z"/>
<path fill="#DDB45E" opacity="1.000000" stroke="none" 
	d="
M562.972351,306.517792 
	C562.522644,309.619080 561.050537,310.148743 558.195312,308.888184 
	C554.157959,307.105804 547.533386,308.862793 545.912109,312.244141 
	C543.614624,309.682861 541.355652,306.672668 539.331055,303.067993 
	C539.715210,301.653900 539.864929,300.834290 540.443604,300.013367 
	C545.755615,299.789276 550.639954,299.588013 555.518982,299.296204 
	C555.853027,299.276245 556.146606,298.578461 556.702332,298.465546 
	C558.954590,301.329407 560.963440,303.923615 562.972351,306.517792 
z"/>
<path fill="#F8E5A1" opacity="1.000000" stroke="none" 
	d="
M614.659851,279.685944 
	C615.685303,272.990753 622.022400,270.610992 627.620667,274.683960 
	C628.766357,275.517548 630.413696,275.661774 632.020447,275.849304 
	C632.728455,276.329895 633.245850,277.084930 633.782593,278.286743 
	C633.801941,278.733521 633.946838,278.882843 633.946838,278.882843 
	C634.055115,279.354584 634.163330,279.826294 634.052856,280.993713 
	C633.788574,282.408112 633.743042,283.126801 633.363525,283.835602 
	C629.894531,283.262726 626.775696,282.477783 623.616455,282.247192 
	C622.371277,282.156342 620.900513,283.116913 619.778931,283.936188 
	C618.613159,284.787811 617.745300,286.047211 616.467651,286.888489 
	C615.678650,284.327759 615.169250,282.006836 614.659851,279.685944 
z"/>
<path fill="#EFD785" opacity="1.000000" stroke="none" 
	d="
M319.833527,294.964783 
	C319.833527,294.964783 319.384064,294.894073 318.915405,294.670410 
	C318.014648,292.321228 317.409943,290.864868 314.579468,291.809631 
	C312.305878,292.568542 309.720795,293.052490 307.374725,292.782501 
	C303.806274,292.371857 303.052490,294.125946 302.987152,296.979187 
	C302.987152,296.979187 302.999542,296.997833 302.673279,297.025909 
	C301.567047,297.699554 300.787018,298.345123 300.007019,298.990662 
	C299.587402,298.987915 299.167786,298.985168 298.433533,298.992096 
	C299.968170,296.511749 301.817444,294.021729 304.225342,291.213593 
	C305.446564,289.828156 306.109131,288.760803 306.771698,287.693481 
	C306.771698,287.693481 306.805023,287.806580 307.105316,287.803589 
	C311.810455,282.409119 317.610565,280.851868 323.938843,281.343445 
	C323.938843,284.011841 323.938843,286.355774 323.922607,288.724548 
	C323.906403,288.749420 323.847870,288.760590 323.441956,288.742035 
	C322.794983,289.435272 322.553925,290.147095 322.129700,291.102509 
	C321.242218,292.552368 320.537872,293.758575 319.833527,294.964783 
z"/>
<path fill="#F4EFC4" opacity="1.000000" stroke="none" 
	d="
M350.224060,269.547180 
	C342.855988,269.103729 335.413452,268.063293 327.936981,267.673157 
	C325.544922,267.548340 323.063019,269.145233 320.242676,269.956177 
	C321.828125,264.856140 325.007782,261.786499 331.002655,262.794647 
	C333.089905,263.145630 335.322540,263.102814 337.425385,262.799835 
	C343.227997,261.963867 347.692474,263.503998 350.224060,269.547180 
z"/>
<path fill="#EDD07B" opacity="1.000000" stroke="none" 
	d="
M216.772141,232.298126 
	C219.190353,233.439621 221.189972,234.852112 223.394455,235.775558 
	C225.746155,236.760696 228.265579,237.394043 230.759216,237.978653 
	C233.448547,238.609131 236.192825,239.005203 238.913147,239.503525 
	C238.872803,240.080978 238.832458,240.658432 238.792114,241.235886 
	C237.628860,241.485687 236.467651,241.940033 235.302002,241.951752 
	C228.192917,242.023193 221.081833,241.927979 213.973572,242.033295 
	C211.379425,242.071716 209.782227,241.368896 209.892303,238.034042 
	C212.051346,235.844604 214.247513,234.099258 216.772141,232.298126 
z"/>
<path fill="#E9C971" opacity="1.000000" stroke="none" 
	d="
M635.218140,296.972443 
	C634.062561,300.669647 632.906921,304.366882 631.432251,307.803833 
	C631.276428,305.293274 631.439636,303.042969 631.712646,299.279083 
	C625.776428,300.220459 620.297058,301.089417 614.887512,301.564056 
	C615.682739,297.792755 616.408081,294.415741 617.342224,291.185730 
	C621.215698,292.243225 624.880432,293.153687 628.541992,294.063385 
	C630.189697,293.438751 632.097961,292.715271 634.003174,291.995911 
	C634.000000,292.000000 634.007324,291.993896 634.000366,292.349823 
	C634.401672,294.127991 634.809875,295.550232 635.218140,296.972443 
z"/>
<path fill="#F4DE91" opacity="1.000000" stroke="none" 
	d="
M339.330750,280.012024 
	C340.369049,279.070862 341.407349,278.129700 342.563812,277.081421 
	C345.154205,278.077179 348.325317,281.456726 349.445923,276.064392 
	C351.389130,276.428741 353.141876,276.757355 355.102173,276.816528 
	C358.040894,280.160339 360.772095,283.773621 363.221130,287.679138 
	C361.948029,287.471039 360.976593,286.926575 359.962158,286.479614 
	C357.905396,285.573303 355.631958,283.708038 353.795807,284.058960 
	C350.169586,284.751923 347.246582,287.045807 347.453674,291.393982 
	C344.541504,287.482574 341.936127,283.747284 339.330750,280.012024 
z"/>
<path fill="#E9C971" opacity="1.000000" stroke="none" 
	d="
M460.062714,296.312775 
	C464.158600,294.753845 468.254486,293.194916 472.624573,291.415009 
	C481.494141,293.318970 484.873627,300.729919 480.971222,309.350647 
	C481.181458,307.702911 481.589478,306.034729 482.072510,304.101990 
	C481.751587,303.240082 481.355591,302.642731 480.974426,302.023804 
	C480.989288,302.002228 480.951569,302.045837 480.822266,301.702454 
	C477.334503,293.435364 471.171844,300.348907 466.244690,297.586121 
	C466.638641,299.834473 466.831879,300.937317 466.764526,302.273499 
	C465.967499,304.320435 465.431122,306.134064 464.894714,307.947693 
	C464.365509,307.717316 463.836273,307.486938 463.254395,306.679413 
	C465.760101,301.683228 464.055969,298.630981 460.062714,296.312775 
z"/>
<path fill="#F3EAB2" opacity="1.000000" stroke="none" 
	d="
M398.788818,270.453369 
	C404.127716,269.679474 409.316864,269.088684 414.494507,269.176392 
	C416.004150,269.201996 417.480988,271.163147 418.691711,272.795715 
	C417.696472,274.571014 416.982330,275.787750 415.783630,277.003479 
	C412.490051,277.001709 409.681122,276.996277 406.872162,277.000885 
	C400.066864,277.012024 400.066864,277.013916 399.978638,283.905426 
	C399.978638,283.905426 399.482361,283.938141 399.237061,283.979065 
	C398.872711,279.645020 398.753693,275.270081 398.788818,270.453369 
z"/>
<path fill="#F4DE91" opacity="1.000000" stroke="none" 
	d="
M517.887939,280.005280 
	C517.892334,283.330292 517.896729,286.655334 517.636108,290.161865 
	C517.022888,288.981476 516.674622,287.619568 516.357361,286.378876 
	C514.318848,286.584656 512.022217,287.519409 511.163940,286.781403 
	C507.463440,283.599243 504.237335,284.871002 500.865204,287.023346 
	C500.757843,283.973175 500.650482,280.923035 500.927643,277.315216 
	C501.539001,276.501678 501.765808,276.245789 502.396851,275.996826 
	C507.541992,276.160736 512.028381,279.890533 516.992310,277.340454 
	C517.295410,278.445984 517.591675,279.225647 517.887939,280.005280 
z"/>
<path fill="#F4DE91" opacity="1.000000" stroke="none" 
	d="
M323.938843,288.699677 
	C323.938843,286.355774 323.938843,284.011841 323.938843,281.343445 
	C317.610565,280.851868 311.810455,282.409119 307.046844,287.796082 
	C309.173187,284.240662 311.658295,280.689850 314.442810,277.016266 
	C315.394867,276.889496 316.373657,277.165039 316.652069,276.840210 
	C322.367371,270.172699 325.824585,276.663696 330.085876,279.719910 
	C328.112091,283.148315 326.025482,285.924011 323.938843,288.699677 
z"/>
<path fill="#DDB45E" opacity="1.000000" stroke="none" 
	d="
M614.817688,301.958344 
	C620.297058,301.089417 625.776428,300.220459 631.712646,299.279083 
	C631.439636,303.042969 631.276428,305.293274 631.137085,307.993378 
	C631.044983,308.830627 630.929138,309.218140 630.548645,309.772278 
	C627.273865,306.796326 623.737549,307.296722 619.841309,307.851929 
	C617.054932,308.248962 614.064819,307.216156 610.917480,306.480835 
	C612.052124,304.746338 613.434875,303.352325 614.817688,301.958344 
z"/>
<path fill="#F4EFC4" opacity="1.000000" stroke="none" 
	d="
M517.817627,263.151489 
	C518.156311,266.248474 518.105347,269.189453 517.649170,272.486633 
	C515.107727,271.890961 512.926453,271.027832 510.845184,269.968170 
	C506.939789,267.979706 504.092468,270.832794 500.870972,271.998627 
	C500.870972,269.126740 500.870972,266.254852 500.870972,262.926941 
	C505.495270,262.926941 509.871277,262.926941 514.863647,263.061584 
	C515.480103,263.196198 515.761597,262.993134 515.761597,262.993134 
	C516.317078,262.993896 516.872559,262.994659 517.817627,263.151489 
z"/>
<path fill="#EFD785" opacity="1.000000" stroke="none" 
	d="
M500.726288,287.434753 
	C504.237335,284.871002 507.463440,283.599243 511.163940,286.781403 
	C512.022217,287.519409 514.318848,286.584656 516.357361,286.378876 
	C516.674622,287.619568 517.022888,288.981476 517.587036,290.609558 
	C517.817810,292.268951 517.832642,293.662170 517.491455,295.326813 
	C511.713440,294.737915 506.291473,293.877533 500.869537,293.017151 
	C500.775482,291.293488 500.681427,289.569855 500.726288,287.434753 
z"/>
<path fill="#E9C971" opacity="1.000000" stroke="none" 
	d="
M500.721191,293.419495 
	C506.291473,293.877533 511.713440,294.737915 517.447632,295.740387 
	C517.789917,297.588165 517.819946,299.293793 517.518860,301.312378 
	C512.098511,301.117554 507.009308,300.609802 501.920074,300.102051 
	C501.695190,299.801331 501.470337,299.500610 500.993134,299.073242 
	C500.684814,297.238342 500.628815,295.530090 500.721191,293.419495 
z"/>
<path fill="#E9C971" opacity="1.000000" stroke="none" 
	d="
M398.872925,295.367737 
	C404.882660,293.450317 410.761963,291.244995 416.700714,296.067169 
	C416.726013,297.796509 416.540619,298.862396 415.946350,299.941040 
	C410.348419,300.647278 405.159393,301.340698 399.970398,302.034149 
	C399.785828,301.157379 399.601288,300.280579 399.152710,299.190582 
	C398.834686,297.900543 398.780640,296.823761 398.872925,295.367737 
z"/>
<path fill="#EFD785" opacity="1.000000" stroke="none" 
	d="
M347.760498,291.570099 
	C347.246582,287.045807 350.169586,284.751923 353.795807,284.058960 
	C355.631958,283.708038 357.905396,285.573303 359.962158,286.479614 
	C360.976593,286.926575 361.948029,287.471039 363.279480,288.001099 
	C363.620056,288.030823 363.929932,288.128967 363.944214,288.366852 
	C363.958496,288.604736 364.168549,288.822784 364.168549,288.822784 
	C365.218079,290.145111 366.267639,291.467468 367.442200,293.120850 
	C366.607666,293.517639 365.239288,294.028290 364.751740,293.580292 
	C359.916046,289.137115 355.347382,291.713776 350.304291,293.618591 
	C349.240936,292.897339 348.603210,292.442596 347.829956,291.924805 
	C347.694397,291.861725 347.760498,291.570099 347.760498,291.570099 
z"/>
<path fill="#C99C4E" opacity="1.000000" stroke="none" 
	d="
M465.329803,307.967163 
	C465.431122,306.134064 465.967499,304.320435 467.097229,302.435852 
	C472.192291,305.643799 476.556335,303.196564 480.951569,302.045837 
	C480.951569,302.045837 480.989288,302.002228 480.972626,302.327484 
	C481.303131,303.223999 481.650299,303.795258 481.997498,304.366547 
	C481.589478,306.034729 481.181458,307.702911 480.832703,309.652710 
	C480.408447,310.788635 479.924927,311.642883 479.023499,312.879730 
	C478.426758,313.556793 478.247925,313.851227 478.069092,314.145691 
	C478.069092,314.145691 478.087891,314.084412 478.104553,314.112854 
	C477.337494,313.609680 476.300751,313.247314 475.812744,312.517853 
	C473.378448,308.879028 470.092743,307.328156 465.329803,307.967163 
z"/>
<path fill="#F8E5A1" opacity="1.000000" stroke="none" 
	d="
M462.184753,277.987488 
	C463.629761,277.338348 465.214966,276.891876 466.495972,276.005676 
	C472.617584,271.770813 477.097626,273.381866 478.669189,280.686584 
	C478.374054,282.130432 477.835815,283.293671 477.084015,284.724884 
	C474.991974,280.839447 472.487213,280.012512 468.024872,281.619415 
	C466.351318,282.222076 464.405151,282.067688 462.247955,281.712433 
	C462.003357,280.106781 462.094055,279.047150 462.184753,277.987488 
z"/>
<path fill="#F3EAB2" opacity="1.000000" stroke="none" 
	d="
M500.727692,272.321899 
	C504.092468,270.832794 506.939789,267.979706 510.845184,269.968170 
	C512.926453,271.027832 515.107727,271.890961 517.590820,272.933136 
	C517.974182,273.466339 518.010620,273.909210 517.774719,274.867432 
	C517.347839,275.909241 517.193298,276.435699 517.025513,276.975189 
	C517.012268,276.988190 516.985474,277.014526 516.985474,277.014526 
	C512.028381,279.890533 507.541992,276.160736 502.356567,275.698242 
	C501.567596,274.927246 501.223053,274.461731 500.878540,273.996216 
	C500.780518,273.545868 500.682465,273.095551 500.727692,272.321899 
z"/>
<path fill="#C99C4E" opacity="1.000000" stroke="none" 
	d="
M290.329742,310.053436 
	C290.847992,309.926758 291.079315,309.935059 291.656799,310.361877 
	C290.924347,312.945404 289.845734,315.110413 288.768707,317.272217 
	C295.071838,318.827606 299.134705,318.277283 305.986694,314.994934 
	C306.045074,315.049622 306.160767,315.160095 306.160767,315.160095 
	C304.930359,319.013428 302.485291,320.578979 298.293335,320.227600 
	C293.689697,319.841736 289.028809,320.139679 282.829376,320.139679 
	C285.713593,316.160797 287.878204,313.174622 290.329742,310.053436 
z"/>
<path fill="#C99C4E" opacity="1.000000" stroke="none" 
	d="
M496.158051,207.015900 
	C507.809082,205.357635 519.460083,203.699371 531.557129,202.270737 
	C532.003052,202.500366 532.000427,202.942322 532.000427,202.942322 
	C530.424622,203.281723 528.848755,203.621140 526.820740,203.937347 
	C526.368530,203.914139 526.267090,203.922577 526.267090,203.922577 
	C524.753479,204.247269 523.239868,204.571945 521.206787,204.909668 
	C520.687256,204.922699 520.400574,204.881180 520.400574,204.881165 
	C510.882935,206.461212 501.365295,208.041245 491.422577,209.631561 
	C491.264801,209.246277 491.532104,208.850693 491.936584,208.254044 
	C492.518555,208.029495 492.963348,208.005981 494.032745,207.927658 
	C495.157593,207.587189 495.657806,207.301559 496.158051,207.015900 
z"/>
<path fill="#C99C4E" opacity="1.000000" stroke="none" 
	d="
M491.012482,198.930283 
	C490.582550,198.930405 490.152618,198.930511 489.402039,198.934631 
	C478.676453,198.925980 468.271515,198.913300 457.528076,198.698273 
	C468.149475,198.048416 479.109283,197.600922 490.528687,197.506683 
	C490.996338,198.216721 491.004425,198.573502 491.012482,198.930283 
z"/>
<path fill="#C99C4E" opacity="1.000000" stroke="none" 
	d="
M526.561890,195.802444 
	C525.918335,196.910873 524.825989,198.801910 523.806519,198.763382 
	C518.321777,198.556107 512.855103,197.869278 507.167450,197.057037 
	C507.171692,196.683868 507.390747,196.601624 508.004425,196.577774 
	C508.399048,196.636154 508.756866,196.623718 508.756866,196.623718 
	C511.561096,196.434860 514.365356,196.245987 517.847412,196.336197 
	C519.647583,196.429794 520.769897,196.244308 521.892151,196.058823 
	C523.310364,195.937393 524.728516,195.815948 526.561890,195.802444 
z"/>
<path fill="#C99C4E" opacity="1.000000" stroke="none" 
	d="
M302.991913,309.053619 
	C305.505615,308.636871 308.019287,308.220154 310.881958,307.972717 
	C309.731567,310.375488 308.232208,312.608948 306.446808,315.001251 
	C306.160767,315.160095 306.045074,315.049622 305.961853,314.652222 
	C304.916382,312.521088 303.954132,310.787354 302.991913,309.053619 
z"/>
<path fill="#F3EAB2" opacity="1.000000" stroke="none" 
	d="
M236.994690,218.640564 
	C236.708633,220.076172 236.394272,221.188416 236.037582,222.644989 
	C234.114380,223.100342 232.233490,223.211334 230.120026,223.070709 
	C232.010651,221.205185 234.133850,219.591263 236.565063,217.826050 
	C236.904205,217.888901 236.935303,218.103058 236.994690,218.640564 
z"/>
<path fill="#EDD07B" opacity="1.000000" stroke="none" 
	d="
M273.204346,274.607483 
	C272.391266,272.911224 271.692627,270.850891 270.997620,268.394653 
	C271.001190,267.998718 271.015747,267.983215 271.349457,267.947510 
	C272.753601,267.644257 273.824005,267.376709 274.894440,267.109131 
	C274.894440,267.109131 274.962555,267.446777 274.954834,267.618622 
	C274.404358,269.941437 273.861572,272.092438 273.204346,274.607483 
z"/>
<path fill="#C99C4E" opacity="1.000000" stroke="none" 
	d="
M504.500580,196.810181 
	C501.926453,197.625031 498.914276,198.320328 495.453705,198.706161 
	C494.992615,197.990128 494.979950,197.583557 494.967285,197.176971 
	C497.999054,197.014862 501.030792,196.852737 504.500580,196.810181 
z"/>
<path fill="#EDD07B" opacity="1.000000" stroke="none" 
	d="
M370.616364,200.937469 
	C368.539032,201.278824 366.121948,201.497406 363.405579,201.493683 
	C365.496399,201.119156 367.886505,200.966919 370.616364,200.937469 
z"/>
<path fill="#F3EAB2" opacity="1.000000" stroke="none" 
	d="
M356.563232,201.398315 
	C354.769592,201.773834 352.557617,202.005646 350.182007,201.946838 
	C352.060516,201.522339 354.102722,201.388474 356.563232,201.398315 
z"/>
<path fill="#EDD07B" opacity="1.000000" stroke="none" 
	d="
M379.626404,200.726791 
	C378.885773,201.244278 377.761475,201.626617 376.310760,202.019623 
	C375.135986,201.854706 374.287689,201.679123 373.227264,201.252716 
	C375.091034,200.865143 377.166931,200.728394 379.626404,200.726791 
z"/>
<path fill="#C99C4E" opacity="1.000000" stroke="none" 
	d="
M402.432281,200.449890 
	C400.682861,200.441650 399.374756,200.389618 397.688904,200.240082 
	C400.972198,199.983536 404.633270,199.824524 408.666016,199.786469 
	C406.983032,200.073654 404.928314,200.239868 402.432281,200.449890 
z"/>
<path fill="#EDD07B" opacity="1.000000" stroke="none" 
	d="
M540.014648,300.014648 
	C539.864929,300.834290 539.715210,301.653900 539.360474,302.713654 
	C538.693787,301.170929 538.232117,299.388092 537.873230,297.276184 
	C538.191467,296.922791 538.406738,296.923920 539.036621,297.182373 
	C539.639160,298.281036 539.826904,299.147827 540.014648,300.014648 
z"/>
<path fill="#E9C971" opacity="1.000000" stroke="none" 
	d="
M472.269562,290.780884 
	C471.568481,290.664795 470.471588,290.216980 469.374664,289.769226 
	C470.209564,289.143311 471.044434,288.517426 472.213501,287.891357 
	C472.322998,288.743805 472.098358,289.596466 472.269562,290.780884 
z"/>
<path fill="#E9C971" opacity="1.000000" stroke="none" 
	d="
M635.589722,288.166718 
	C635.680969,289.870087 635.772217,291.573425 635.535645,293.370239 
	C635.067871,292.939758 634.927979,292.415833 634.817932,291.564148 
	C635.095154,290.213165 635.342468,289.189941 635.589722,288.166718 
z"/>
<path fill="#C99C4E" opacity="1.000000" stroke="none" 
	d="
M541.677490,199.040649 
	C542.011108,199.592682 542.004150,200.128235 542.000977,200.932129 
	C541.233887,201.405197 540.463013,201.609940 539.096558,201.576721 
	C537.986694,201.208908 537.472534,201.079071 536.958313,200.949219 
	C536.958313,200.949219 537.006226,200.469269 537.351746,200.225677 
	C538.456116,199.665497 539.215027,199.348892 539.973877,199.032288 
	C540.428223,199.029587 540.882568,199.026871 541.677490,199.040649 
z"/>
<path fill="#C5974B" opacity="1.000000" stroke="none" 
	d="
M494.704956,197.071320 
	C494.979950,197.583557 494.992615,197.990128 495.005310,198.701950 
	C493.939514,199.007172 492.873627,199.007156 491.410126,198.968719 
	C491.004425,198.573502 490.996338,198.216721 490.989258,197.591675 
	C492.141022,197.204178 493.291840,197.084930 494.704956,197.071320 
z"/>
<path fill="#E9C971" opacity="1.000000" stroke="none" 
	d="
M633.697510,283.845490 
	C633.743042,283.126801 633.788574,282.408112 633.931763,281.344604 
	C634.557007,282.480530 635.084595,283.961304 635.236023,285.810242 
	C634.592224,286.183929 634.325928,286.168427 634.007812,285.748657 
	C633.869019,284.858765 633.783264,284.352112 633.697510,283.845490 
z"/>
<path fill="#C99C4E" opacity="1.000000" stroke="none" 
	d="
M342.307373,307.085205 
	C343.511353,306.780457 344.999725,306.617645 346.730225,306.699402 
	C345.512115,307.038361 344.051941,307.132721 342.307373,307.085205 
z"/>
<path fill="#F8E5A1" opacity="1.000000" stroke="none" 
	d="
M634.060913,286.131897 
	C634.325928,286.168427 634.592224,286.183929 635.049194,286.114258 
	C635.400513,286.509705 635.562378,286.969391 635.656982,287.797913 
	C635.342468,289.189941 635.095154,290.213165 634.624268,291.596008 
	C634.400757,291.955688 634.007324,291.993896 634.007324,291.993896 
	C634.007324,291.993896 634.000000,292.000000 634.007568,291.574829 
	C634.030396,289.477051 634.045654,287.804474 634.060913,286.131897 
z"/>
<path fill="#EFD785" opacity="1.000000" stroke="none" 
	d="
M416.621765,199.753815 
	C415.401672,200.124420 413.768372,200.391388 412.064575,200.331177 
	C413.398865,199.886063 414.803741,199.768127 416.621765,199.753815 
z"/>
<path fill="#EFD785" opacity="1.000000" stroke="none" 
	d="
M401.290466,223.788544 
	C400.612213,223.205948 400.330658,222.698792 400.049133,222.191635 
	C401.257111,222.361511 402.465057,222.531372 403.825256,222.946091 
	C403.214020,223.415298 402.450592,223.639648 401.290466,223.788544 
z"/>
<path fill="#EFD785" opacity="1.000000" stroke="none" 
	d="
M634.000366,292.349823 
	C634.007324,291.993896 634.400757,291.955688 634.594360,291.923828 
	C634.927979,292.415833 635.067871,292.939758 635.377197,293.672791 
	C635.558472,294.674164 635.570435,295.466431 635.400269,296.615570 
	C634.809875,295.550232 634.401672,294.127991 634.000366,292.349823 
z"/>
<path fill="#C5974B" opacity="1.000000" stroke="none" 
	d="
M521.632690,195.962448 
	C520.769897,196.244308 519.647583,196.429794 518.310181,196.414948 
	C519.187744,196.098434 520.280518,195.982254 521.632690,195.962448 
z"/>
<path fill="#F4DE91" opacity="1.000000" stroke="none" 
	d="
M306.491333,287.846710 
	C306.109131,288.760803 305.446564,289.828156 304.442566,290.960510 
	C304.804443,290.016968 305.507721,289.008453 306.491333,287.846710 
z"/>
<path fill="#C5974B" opacity="1.000000" stroke="none" 
	d="
M536.777222,201.044281 
	C537.472534,201.079071 537.986694,201.208908 538.695801,201.520309 
	C538.090942,201.919357 537.291199,202.136856 536.199707,202.232025 
	C536.137390,201.786270 536.366699,201.462814 536.777222,201.044281 
z"/>
<path fill="#EFD785" opacity="1.000000" stroke="none" 
	d="
M393.954895,224.254395 
	C394.904053,224.029449 395.848267,224.000763 396.892731,224.245819 
	C396.231842,224.676804 395.470673,224.834045 394.323975,224.917175 
	C393.938385,224.843063 393.949951,224.450638 393.954895,224.254395 
z"/>
<path fill="#EFD785" opacity="1.000000" stroke="none" 
	d="
M369.190430,295.369812 
	C368.723846,295.873749 368.205963,296.093170 367.688080,296.312561 
	C367.554169,295.604248 367.420288,294.895966 367.423706,293.829163 
	C368.087036,294.008911 368.613068,294.547089 369.190430,295.369812 
z"/>
<path fill="#C99C4E" opacity="1.000000" stroke="none" 
	d="
M430.046844,200.026108 
	C430.046844,200.026108 429.993286,199.615189 430.005066,199.408264 
	C430.845306,199.093674 431.673798,198.985992 432.726257,198.992950 
	C432.483337,199.388763 432.016418,199.669937 431.034668,199.981033 
	C430.519836,200.010956 430.046844,200.026108 430.046844,200.026108 
z"/>
<path fill="#C99C4E" opacity="1.000000" stroke="none" 
	d="
M547.801392,200.384674 
	C546.774719,200.147919 545.985901,199.965622 545.197144,199.783325 
	C545.230225,199.543686 545.263367,199.304062 545.296509,199.064438 
	C546.380676,199.243637 547.464783,199.422836 548.753784,199.873077 
	C548.683472,200.339966 548.377075,200.438309 547.801392,200.384674 
z"/>
<path fill="#EDD07B" opacity="1.000000" stroke="none" 
	d="
M248.644562,272.971710 
	C248.519241,273.601746 248.096710,274.238770 247.367004,274.931610 
	C247.024216,274.537292 246.988617,274.087189 247.054779,273.310669 
	C247.553467,272.982422 247.950424,272.980560 248.644562,272.971710 
z"/>
<path fill="#F4EFC4" opacity="1.000000" stroke="none" 
	d="
M500.744629,274.360443 
	C501.223053,274.461731 501.567596,274.927246 501.952393,275.691284 
	C501.765808,276.245789 501.539001,276.501678 501.085449,276.883575 
	C500.776031,276.247955 500.693359,275.486298 500.744629,274.360443 
z"/>
<path fill="#EDD07B" opacity="1.000000" stroke="none" 
	d="
M272.131897,278.827820 
	C271.696716,278.474945 271.445068,277.959167 271.193451,277.443390 
	C271.514160,277.389160 271.834869,277.334900 272.296082,277.503143 
	C272.566254,278.060608 272.525909,278.373688 272.131897,278.827820 
z"/>
<path fill="#C5974B" opacity="1.000000" stroke="none" 
	d="
M520.446289,204.988800 
	C520.400574,204.881180 520.687256,204.922699 520.740723,204.896088 
	C520.794128,204.869461 520.962585,205.085449 520.962585,205.085449 
	C520.962585,205.085449 520.492004,205.096436 520.446289,204.988800 
z"/>
<path fill="#C99C4E" opacity="1.000000" stroke="none" 
	d="
M360.701630,311.462433 
	C361.091827,311.561249 361.516754,311.958160 361.956482,312.665955 
	C361.559631,312.571411 361.147980,312.165955 360.701630,311.462433 
z"/>
<path fill="#C99C4E" opacity="1.000000" stroke="none" 
	d="
M378.855591,308.806213 
	C378.566956,308.754669 378.318878,308.516846 378.007324,308.023254 
	C378.261230,308.051605 378.578705,308.335754 378.855591,308.806213 
z"/>
<path fill="#E9C971" opacity="1.000000" stroke="none" 
	d="
M634.055786,278.867004 
	C633.946838,278.882843 633.801941,278.733521 633.829712,278.633545 
	C633.857422,278.533539 634.114014,278.538391 634.114014,278.538391 
	C634.114014,278.538391 634.164673,278.851196 634.055786,278.867004 
z"/>
<path fill="#C99C4E" opacity="1.000000" stroke="none" 
	d="
M377.318787,306.635864 
	C377.041382,306.673096 376.711975,306.373230 376.339783,305.732422 
	C376.620239,305.693939 376.943481,305.996399 377.318787,306.635864 
z"/>
<path fill="#C5974B" opacity="1.000000" stroke="none" 
	d="
M400.768311,262.823853 
	C400.766266,262.959015 400.540924,263.166901 400.420532,263.075226 
	C400.300171,262.983551 400.376373,262.676300 400.376373,262.676300 
	C400.376373,262.676300 400.770386,262.688690 400.768311,262.823853 
z"/>
<path fill="#C5974B" opacity="1.000000" stroke="none" 
	d="
M515.759155,262.854370 
	C515.761597,262.993134 515.480103,263.196198 515.342529,263.093506 
	C515.205017,262.990845 515.350647,262.682556 515.350647,262.682556 
	C515.350647,262.682556 515.756775,262.715637 515.759155,262.854370 
z"/>
<path fill="#EDD07B" opacity="1.000000" stroke="none" 
	d="
M393.145020,225.072906 
	C393.099182,224.956848 393.406525,224.870239 393.566040,224.875305 
	C393.679016,225.155243 393.500793,225.258118 393.145020,225.072906 
z"/>
<path fill="#C5974B" opacity="1.000000" stroke="none" 
	d="
M532.262207,202.971588 
	C532.000427,202.942322 532.003052,202.500366 532.004761,202.280121 
	C532.290955,202.102615 532.540222,202.220047 532.872681,202.584610 
	C532.835205,202.838318 532.679565,202.919586 532.262207,202.971588 
z"/>
<path fill="#C5974B" opacity="1.000000" stroke="none" 
	d="
M526.256470,204.011353 
	C526.267090,203.922577 526.368530,203.914139 526.416260,203.903351 
	C526.463989,203.892563 526.487366,204.098206 526.487366,204.098206 
	C526.487366,204.098206 526.245789,204.100128 526.256470,204.011353 
z"/>
<path fill="#DDB45E" opacity="1.000000" stroke="none" 
	d="
M508.629486,196.561813 
	C508.756866,196.623718 508.399048,196.636154 508.345032,196.662445 
	C508.290985,196.688721 508.502106,196.499908 508.629486,196.561813 
z"/>
<path fill="#E9C971" opacity="1.000000" stroke="none" 
	d="
M443.597687,217.030273 
	C443.603546,217.085220 443.467682,217.043503 443.430939,217.033081 
	C443.394196,217.022644 443.591827,216.975327 443.597687,217.030273 
z"/>
<path fill="#E9C971" opacity="1.000000" stroke="none" 
	d="
M364.248352,288.723175 
	C364.168549,288.822784 363.958496,288.604736 363.942749,288.529358 
	C363.926971,288.454010 364.180328,288.414398 364.180328,288.414398 
	C364.180328,288.414398 364.328125,288.623566 364.248352,288.723175 
z"/>
<path fill="#DDB45E" opacity="1.000000" stroke="none" 
	d="
M380.169403,310.644592 
	C379.947632,310.717773 379.639984,310.490570 379.188843,310.009613 
	C379.391449,309.951935 379.737488,310.148041 380.169403,310.644592 
z"/>
<path fill="#C5974B" opacity="1.000000" stroke="none" 
	d="
M478.353943,314.074158 
	C478.247925,313.851227 478.426758,313.556793 478.829956,313.127319 
	C478.915833,313.329041 478.777313,313.665833 478.353943,314.074158 
z"/>
<path fill="#080604" opacity="1.000000" stroke="none" 
	d="
M614.887512,301.564056 
	C613.434875,303.352325 612.052124,304.746338 610.455933,306.403381 
	C597.324158,311.146637 584.087402,310.135498 570.008667,308.836945 
	C568.310913,308.656372 567.445007,308.589691 566.579163,308.523010 
	C566.579163,308.523010 566.376770,308.746857 566.420654,308.480835 
	C565.994202,308.056000 565.523865,307.897156 565.053589,307.738342 
	C564.528687,307.343323 564.003845,306.948273 563.225647,306.535522 
	C560.963440,303.923615 558.954590,301.329407 556.669617,298.482300 
	C556.393555,298.229401 556.418274,298.188965 556.426758,297.731262 
	C556.149658,295.170837 555.864136,293.068115 555.578613,290.965363 
	C556.699280,287.234467 557.819946,283.503571 559.011108,279.409912 
	C563.685486,274.275696 569.950256,273.695068 575.844482,273.433716 
	C584.925049,273.031067 594.104797,273.240692 603.138672,274.184540 
	C606.914734,274.579041 610.424683,277.521088 614.357727,279.495422 
	C615.169250,282.006836 615.678650,284.327759 616.445068,287.283203 
	C616.845825,288.958099 616.989624,289.998413 617.133423,291.038727 
	C616.408081,294.415741 615.682739,297.792755 614.887512,301.564056 
z"/>
<path fill="#DDB45E" opacity="1.000000" stroke="none" 
	d="
M566.811768,308.788971 
	C567.445007,308.589691 568.310913,308.656372 569.575317,308.903503 
	C568.997375,309.074310 568.020874,309.064606 566.811768,308.788971 
z"/>
<path fill="#DDB45E" opacity="1.000000" stroke="none" 
	d="
M565.245728,308.013824 
	C565.523865,307.897156 565.994202,308.056000 566.525146,308.589661 
	C566.203186,308.739410 565.820496,308.514374 565.245728,308.013824 
z"/>
<path fill="#080604" opacity="1.000000" stroke="none" 
	d="
M416.355255,299.928253 
	C416.540619,298.862396 416.726013,297.796509 416.948792,296.323944 
	C431.027863,296.046600 445.069580,296.175964 459.586975,296.309021 
	C464.055969,298.630981 465.760101,301.683228 463.051514,306.464478 
	C460.160889,307.551971 457.420471,308.277252 453.852051,309.093811 
	C441.026703,309.096771 429.029327,309.008453 417.031982,308.920166 
	C416.985352,308.468475 416.938690,308.016815 416.815369,306.823425 
	C416.610870,304.030548 416.483063,301.979401 416.355255,299.928253 
z"/>
<path fill="#DDB45E" opacity="1.000000" stroke="none" 
	d="
M415.946350,299.941040 
	C416.483063,301.979401 416.610870,304.030548 416.660767,306.517578 
	C411.384918,307.532379 406.187012,308.111267 400.238586,308.773743 
	C400.136871,306.625183 400.048248,304.753967 399.965027,302.458435 
	C405.159393,301.340698 410.348419,300.647278 415.946350,299.941040 
z"/>
<path fill="#DDB45E" opacity="1.000000" stroke="none" 
	d="
M417.147766,309.307129 
	C429.029327,309.008453 441.026703,309.096771 453.484192,309.254242 
	C452.897522,309.884735 451.856476,310.921051 450.803040,310.933807 
	C440.593475,311.057129 430.381531,311.044250 420.171326,310.952087 
	C419.198364,310.943298 418.232605,310.132538 417.147766,309.307129 
z"/>
<path fill="#080604" opacity="1.000000" stroke="none" 
	d="
M461.976929,277.690887 
	C462.094055,279.047150 462.003357,280.106781 461.894135,281.566162 
	C459.577209,283.090607 457.310760,285.106659 454.975098,285.190277 
	C442.924225,285.621674 430.855652,285.576843 418.792999,285.616180 
	C418.122925,285.618378 417.450470,284.887543 416.678650,283.774719 
	C416.474823,281.035828 416.371521,279.020142 416.268188,277.004456 
	C416.982330,275.787750 417.696472,274.571014 418.703735,273.200348 
	C426.786774,273.141266 434.576630,273.236145 442.769867,273.206665 
	C447.148499,273.340332 451.193176,273.239563 455.073334,273.989624 
	C457.436310,274.446472 459.545776,276.214966 461.976929,277.690887 
z"/>
<path fill="#F8E5A1" opacity="1.000000" stroke="none" 
	d="
M415.783600,277.003479 
	C416.371521,279.020142 416.474823,281.035828 416.457825,283.468994 
	C413.557037,283.430725 410.785553,282.693085 407.993378,282.604004 
	C405.540955,282.525757 403.065277,283.174225 400.289246,283.703583 
	C400.066864,277.013916 400.066864,277.012024 406.872162,277.000885 
	C409.681122,276.996277 412.490051,277.001709 415.783600,277.003479 
z"/>
<path fill="#EDD07B" opacity="1.000000" stroke="none" 
	d="
M430.130981,200.168365 
	C430.046844,200.026108 430.519836,200.010956 430.755676,200.028351 
	C430.991547,200.045746 430.654327,200.388031 430.654327,200.388031 
	C430.654327,200.388031 430.215149,200.310623 430.130981,200.168365 
z"/>
<path fill="#EDD07B" opacity="1.000000" stroke="none" 
	d="
M270.992920,268.007080 
	C264.256042,267.719238 257.527405,267.423065 250.417236,267.076782 
	C251.178452,262.780518 252.321198,258.534393 253.321289,254.818329 
	C256.507507,254.543839 259.077728,254.424469 261.618286,254.083908 
	C268.543793,253.155533 269.611877,253.788177 272.160431,261.173920 
	C273.540192,259.881927 274.726990,258.770569 275.913818,257.659210 
	C276.311127,257.749146 276.708435,257.839081 277.105743,257.929016 
	C276.529327,260.160187 275.952881,262.391357 274.840607,264.770782 
	C270.959991,263.526978 270.886536,265.646332 271.015747,267.983215 
	C271.015747,267.983215 271.001190,267.998718 270.992920,268.007080 
z"/>
<path fill="#F4DE91" opacity="1.000000" stroke="none" 
	d="
M278.004883,246.004639 
	C277.781128,247.624924 277.552490,249.240692 277.323853,250.856461 
	C276.613129,250.634262 275.902405,250.412079 275.191681,250.189880 
	C275.884460,248.829865 276.577240,247.469849 277.630371,246.050629 
	C277.990753,245.991409 278.000000,246.000107 278.004883,246.004639 
z"/>
<path fill="#E9C971" opacity="1.000000" stroke="none" 
	d="
M271.349457,267.947510 
	C270.886536,265.646332 270.959991,263.526978 274.651794,264.962402 
	C274.985413,265.472748 274.972046,265.939728 274.926575,266.757904 
	C273.824005,267.376709 272.753601,267.644257 271.349457,267.947510 
z"/>
<path fill="#080604" opacity="1.000000" stroke="none" 
	d="
M347.453674,291.393982 
	C347.760498,291.570099 347.694397,291.861725 347.846436,292.224457 
	C348.364227,293.053802 348.729980,293.520416 349.095703,293.987061 
	C349.215118,294.443970 349.334534,294.900848 349.634033,295.544739 
	C339.978821,295.731445 330.143555,295.731110 320.070892,295.347778 
	C320.537872,293.758575 321.242218,292.552368 322.448242,290.961426 
	C323.249237,289.971344 323.548553,289.365967 323.847870,288.760590 
	C323.847870,288.760590 323.906403,288.749420 323.922607,288.724548 
	C326.025482,285.924011 328.112091,283.148315 330.264801,280.059875 
	C331.741699,278.057617 333.152466,276.368164 334.884369,274.294159 
	C336.343109,276.260040 337.563477,277.904663 339.057312,279.780640 
	C341.936127,283.747284 344.541504,287.482574 347.453674,291.393982 
z"/>
<path fill="#C5974B" opacity="1.000000" stroke="none" 
	d="
M302.651855,309.039307 
	C303.954132,310.787354 304.916382,312.521088 305.903473,314.597534 
	C299.134705,318.277283 295.071838,318.827606 288.768707,317.272217 
	C289.845734,315.110413 290.924347,312.945404 292.002075,310.398041 
	C293.131500,309.403412 294.261810,308.791138 295.985962,308.376740 
	C298.036713,308.720093 299.493591,308.865540 300.950470,309.010986 
	C301.404266,309.015625 301.858032,309.020294 302.651855,309.039307 
z"/>
<path fill="#E9C971" opacity="1.000000" stroke="none" 
	d="
M303.385010,296.992065 
	C303.052490,294.125946 303.806274,292.371857 307.374725,292.782501 
	C309.720795,293.052490 312.305878,292.568542 314.579468,291.809631 
	C317.409943,290.864868 318.014648,292.321228 318.688354,294.684509 
	C315.245819,296.036316 311.602631,297.337646 307.854065,298.156799 
	C306.638916,298.422333 305.147797,297.424744 303.385010,296.992065 
z"/>
<path fill="#C99C4E" opacity="1.000000" stroke="none" 
	d="
M300.920471,308.677795 
	C299.493591,308.865540 298.036713,308.720093 296.311462,308.335846 
	C297.889862,303.656464 299.424561,305.327423 300.920471,308.677795 
z"/>
<path fill="#E9C971" opacity="1.000000" stroke="none" 
	d="
M300.355530,298.991364 
	C300.787018,298.345123 301.567047,297.699554 302.663757,297.021118 
	C302.221680,297.656189 301.462860,298.324097 300.355530,298.991364 
z"/>
<path fill="#DDB45E" opacity="1.000000" stroke="none" 
	d="
M244.970337,299.044769 
	C244.765198,296.574829 244.560043,294.104919 244.407410,291.268677 
	C249.667603,283.530609 249.676575,283.494690 259.440887,285.932892 
	C262.142822,286.607574 264.774078,287.565094 267.702850,288.617920 
	C266.516388,292.128143 265.064850,295.413300 262.897461,298.859711 
	C256.444519,299.028931 250.707428,299.036865 244.970337,299.044769 
z"/>
<path fill="#DDB45E" opacity="1.000000" stroke="none" 
	d="
M501.920959,300.513763 
	C507.009308,300.609802 512.098511,301.117554 517.486389,301.735046 
	C518.789429,306.775177 516.636292,308.328735 511.840179,308.093170 
	C504.870483,307.750854 502.182434,306.059265 501.920959,300.513763 
z"/>
<path fill="#F3EAB2" opacity="1.000000" stroke="none" 
	d="
M517.935242,279.630615 
	C517.591675,279.225647 517.295410,278.445984 516.992310,277.340454 
	C516.985474,277.014526 517.012268,276.988190 517.229370,276.985413 
	C517.446472,276.982605 517.855103,277.004486 517.855103,277.004486 
	C517.897583,277.754974 517.940063,278.505493 517.935242,279.630615 
z"/>
<path fill="#F4EFC4" opacity="1.000000" stroke="none" 
	d="
M517.923218,276.675598 
	C517.855103,277.004486 517.446472,276.982605 517.242554,276.972412 
	C517.193298,276.435699 517.347839,275.909241 517.711548,275.196442 
	C517.944214,275.455658 517.967773,275.901215 517.923218,276.675598 
z"/>
<path fill="#C99C4E" opacity="1.000000" stroke="none" 
	d="
M244.816071,299.392059 
	C250.707428,299.036865 256.444519,299.028931 262.597992,299.041962 
	C261.995941,301.637146 261.337646,306.157837 259.892365,306.425262 
	C255.322342,307.270935 250.420227,306.782776 245.750092,306.101257 
	C245.091888,306.005219 245.010284,301.957794 244.816071,299.392059 
z"/>
<path fill="#C99C4E" opacity="1.000000" stroke="none" 
	d="
M535.302063,196.263046 
	C536.201721,196.165894 537.343201,196.316940 538.733887,196.708130 
	C537.836731,196.802612 536.690308,196.656937 535.302063,196.263046 
z"/>
<path fill="#C5974B" opacity="1.000000" stroke="none" 
	d="
M539.646240,199.024811 
	C539.215027,199.348892 538.456116,199.665497 537.373169,199.985443 
	C537.805603,199.664963 538.562134,199.341141 539.646240,199.024811 
z"/>
<path fill="#E9C971" opacity="1.000000" stroke="none" 
	d="
M495.856445,207.035233 
	C495.657806,207.301559 495.157593,207.587189 494.366150,207.897247 
	C494.568237,207.632629 495.061554,207.343582 495.856445,207.035233 
z"/>
<path fill="#EDD07B" opacity="1.000000" stroke="none" 
	d="
M555.244507,290.808075 
	C555.864136,293.068115 556.149658,295.170837 556.073059,297.539612 
	C554.220398,295.896362 553.060547,292.873260 551.169800,292.311859 
	C547.341125,291.175110 543.116333,291.372528 539.054871,291.019867 
	C539.334106,286.938538 538.111755,281.521820 545.527588,283.801147 
	C545.914673,283.920074 546.457092,283.566528 546.918152,283.406708 
	C553.532166,281.113617 553.539551,281.137390 554.024170,287.991852 
	C554.088013,288.894531 554.603882,289.765259 555.244507,290.808075 
z"/>
<path fill="#E9C971" opacity="1.000000" stroke="none" 
	d="
M539.039551,291.444336 
	C543.116333,291.372528 547.341125,291.175110 551.169800,292.311859 
	C553.060547,292.873260 554.220398,295.896362 556.064575,297.997284 
	C556.418274,298.188965 556.393555,298.229401 556.426270,298.212646 
	C556.146606,298.578461 555.853027,299.276245 555.518982,299.296204 
	C550.639954,299.588013 545.755615,299.789276 540.443604,300.013367 
	C539.826904,299.147827 539.639160,298.281036 539.198242,297.188751 
	C538.971436,295.265106 538.997803,293.566956 539.039551,291.444336 
z"/>
<path fill="#F4DE91" opacity="1.000000" stroke="none" 
	d="
M349.319641,293.986877 
	C348.729980,293.520416 348.364227,293.053802 347.981995,292.287537 
	C348.603210,292.442596 349.240936,292.897339 349.934998,293.662872 
	C349.991302,293.973694 349.543610,293.986725 349.319641,293.986877 
z"/>
<path fill="#EFD785" opacity="1.000000" stroke="none" 
	d="
M617.342163,291.185730 
	C616.989624,289.998413 616.845825,288.958099 616.724609,287.523010 
	C617.745300,286.047211 618.613159,284.787811 619.778931,283.936188 
	C620.900513,283.116913 622.371277,282.156342 623.616455,282.247192 
	C626.775696,282.477783 629.894531,283.262726 633.363525,283.835602 
	C633.783264,284.352112 633.869019,284.858765 634.007812,285.748657 
	C634.045654,287.804474 634.030396,289.477051 634.010742,291.570740 
	C632.097961,292.715271 630.189697,293.438751 628.541992,294.063385 
	C624.880432,293.153687 621.215698,292.243225 617.342163,291.185730 
z"/>
<path fill="#F4DE91" opacity="1.000000" stroke="none" 
	d="
M323.441956,288.742035 
	C323.548553,289.365967 323.249237,289.971344 322.631409,290.717804 
	C322.553925,290.147095 322.794983,289.435272 323.441956,288.742035 
z"/>
<path fill="#DDB45E" opacity="1.000000" stroke="none" 
	d="
M480.822266,301.702454 
	C476.556335,303.196564 472.192291,305.643799 467.357819,302.202515 
	C466.831879,300.937317 466.638641,299.834473 466.244690,297.586121 
	C471.171844,300.348907 477.334503,293.435364 480.822266,301.702454 
z"/>
<path fill="#DDB45E" opacity="1.000000" stroke="none" 
	d="
M482.072510,304.101990 
	C481.650299,303.795258 481.303131,303.223999 480.957764,302.349060 
	C481.355591,302.642731 481.751587,303.240082 482.072510,304.101990 
z"/>
</svg>